# AST/ASF file generated using VICON BodyLanguage
# -----------------------------------------------
:version 1.10
:name VICON
:units
  mass 1.0
  length 0.45
  angle deg
:documentation
   .ast/.asf automatically generated from VICON data using
   VICON BodyBuilder and BodyLanguage model FoxedUp or BRILLIANT.MOD
:root
   order TX TY TZ RX RY RZ
   axis XYZ
   position 0 0 0  
   orientation 0 0 0 
:bonedata
  begin
     id 1 
     name lhipjoint
     direction 0.64773 -0.699417 0.302095 
     length 2.48597 
     axis 0 0 0  XYZ
  end
  begin
     id 2 
     name lfemur
     direction 0.34202 -0.939693 0  
     length 6.71947  
     axis 0 0 20  XYZ
    dof rx ry rz
    limits (-160.0 20.0)
           (-70.0 70.0)
           (-60.0 70.0)
  end
  begin
     id 3 
     name ltibia
     direction 0.34202 -0.939693 0   
     length 8.08777   
     axis 0 0 20   XYZ
    dof rx
    limits (-10.0 170.0)
  end
  begin
     id 4 
     name lfoot
     direction 0.0808503 -0.222134 0.971658   
     length 2.08264   
     axis -90 7.62852e-016 20   XYZ
    dof rx rz
    limits (-45.0 90.0)
           (-70.0 20.0)
  end
  begin
     id 5 
     name ltoes
     direction 1.53502e-011 -4.22007e-011 1   
     length 1.04662   
     axis -90 7.62852e-016 20   XYZ
    dof rx
    limits (-90.0 20.0)
  end
  begin
     id 6 
     name rhipjoint
     direction -0.610924 -0.726792 0.313919   
     length 2.39233  
     axis 0 0 0  XYZ 
  end
  begin
     id 7 
     name rfemur
     direction -0.34202 -0.939693 0   
     length 6.96955   
     axis 0 0 -20   XYZ
    dof rx ry rz
    limits (-160.0 20.0)
           (-70.0 70.0)
           (-70.0 60.0)
  end
  begin
     id 8 
     name rtibia
     direction -0.34202 -0.939693 0   
     length 8.19584   
     axis 0 0 -20   XYZ
    dof rx
    limits (-10.0 170.0)
 end
 begin
     id 9 
     name rfoot
     direction -0.077777 -0.213691 0.9738   
     length 2.07539  
     axis -90 -7.62852e-016 -20   XYZ
    dof rx rz
    limits (-45.0 90.0)
           (-20.0 70.0)
  end
  begin
     id 10 
     name rtoes
     direction -1.53558e-011 -4.22006e-011 1   
     length 1.04381   
     axis -90 -7.62852e-016 -20   XYZ
    dof rx
    limits (-90.0 20.0)
  end
  begin
     id 11 
     name lowerback
     direction -0.00971646 0.996074 0.0879841   
     length 1.67643   
     axis 0 0 0   XYZ
    dof rx ry rz
    limits (-20.0 45.0)
           (-30.0 30.0)
           (-30.0 30.0)
  end
  begin
     id 12 
     name upperback
     direction 0.0127391 0.991676 0.128127   
     length 1.63741   
     axis 0 0 0   XYZ
    dof rx ry rz
    limits (-20.0 45.0)
           (-30.0 30.0)
           (-30.0 30.0)
  end
  begin
     id 13 
     name thorax
     direction 0.0167583 0.996049 0.0872067   
     length 1.65931   
     axis 0 0 0   XYZ
    dof rx ry rz
    limits (-20.0 45.0)
           (-30.0 30.0)
           (-30.0 30.0)
  end
  begin
     id 14 
     name lowerneck
     direction -0.0317829 0.998312 0.0486079   
     length 1.79021   
     axis 0 0 0   XYZ
    dof rx ry rz
    limits (-20.0 45.0)
           (-30.0 30.0)
           (-30.0 30.0)
  end
  begin
     id 15 
     name upperneck
     direction 0.0896851 0.972452 -0.215159   
     length 1.78797   
     axis 0 0 0   XYZ
    dof rx ry rz
    limits (-20.0 45.0)
           (-30.0 30.0)
           (-30.0 30.0)
  end
  begin
     id 16
     name head
     direction 0.0310949 0.996503 -0.0775582  
     length 1.81549  
     axis 0 0 0   XYZ
    dof rx ry rz
    limits (-20.0 45.0)
           (-30.0 30.0)
           (-30.0 30.0)
  end
  begin
     id 17 
     name lclavicle
     direction 0.853638 0.502051 -0.138733  
     length 3.31627  
     axis 0 0 0   XYZ
    dof ry rz
    limits (-20.0 10.0)
           (0.0 20.0)
  end
  begin
     id 18 
     name lhumerus
     direction 1 -4.48962e-011 -1.41788e-018   
     length 5.54893   
     axis 180 -30 -90   XYZ
    dof rx ry rz
    limits (-60.0 90.0)
           (-90.0 90.0)
           (-90.0 90.0)
  end
  begin
     id 19
     name lradius
     direction 1 -4.48962e-011 -4.95754e-027   
     length 3.02898   
     axis 180 -30 -90   XYZ
    dof rx
    limits (-10.0 170.0)
  end
  begin
     id 20
     name lwrist
     direction 1 -4.48952e-011 -1.03764e-026   
     length 1.51449   
     axis 9.09556e-015 90 90   XYZ
    dof ry
    limits (-180.0 0.0)
 end
  begin
     id 21 
     name lhand
     direction 1 -4.4902e-011 -2.07528e-026   
     length 0.640951   
     axis 1.3242e-014 90 90   XYZ
    dof rx rz
    limits (-90.0 90.0)
           (-45.0 45.0)
  end
  begin
     id 22 
     name lfingers
     direction 1 -4.49014e-011 -4.15056e-026   
     length 0.516751   
     axis 2.64841e-014 90 90   XYZ
    dof rx
    limits (0.0 90.0)
  end
  begin
     id 23
     name lthumb
     direction 0.707107 -6.35008e-011 0.707107   
     length 0.741954   
     axis -90 45 2.85299e-015   XYZ
    dof rx rz
    limits (-45.0 45.0)
           (-45.0 45.0)
  end
  begin
     id 24 
     name rclavicle
     direction -0.888531 0.455324 -0.0565039   
     length 3.20126  
     axis 0 0 0   XYZ 
    dof ry rz
    limits (-10.0 20.0)
           (-20.0 0.0)
  end
  begin
     id 25 
     name rhumerus
     direction -1 -4.48946e-011 -8.98298e-028  
     length 5.3519   
     axis 180 30 90   XYZ
    dof rx ry rz
    limits (-90.0 60.0)
           (-90.0 90.0)
           (-90.0 90.0)
  end
  begin
     id 26 
     name rradius
     direction -1 -4.4899e-011 -3.18779e-027   
     length 3.02531   
     axis 180 30 90   XYZ
    dof rx
    limits (-10.0 170.0)
  end
  begin
     id 27 
     name rwrist
     direction -1 -4.4897e-011 -1.03764e-026   
     length 1.51266   
     axis 9.09556e-015 -90 -90   XYZ
    dof ry
    limits (-180.0 0.0)
  end
  begin
     id 28
     name rhand
     direction -1 -4.48941e-011 -2.07528e-026   
     length 0.78389   
     axis 1.3242e-014 -90 -90   XYZ
    dof rx rz
    limits (-90.0 90.0)
           (-45.0 45.0)
  end
  begin
     id 29
     name rfingers
     direction -1 -4.49012e-011 -4.15056e-026   
     length 0.631992   
     axis 2.64841e-014 -90 -90   XYZ
    dof rx
    limits (0.0 90.0)
  end
  begin
     id 30
     name rthumb
     direction -0.707107 -6.3496e-011 0.707107   
     length 0.907418   
     axis -90 -45 -2.85299e-015   XYZ
    dof rx rz
    limits (-45.0 45.0)
           (-45.0 45.0)
  end
:hierarchy
  begin
    root lhipjoint rhipjoint lowerback
    lhipjoint lfemur
    lfemur ltibia
    ltibia lfoot
    lfoot ltoes
    rhipjoint rfemur
    rfemur rtibia
    rtibia rfoot
    rfoot rtoes
    lowerback upperback
    upperback thorax
    thorax lowerneck lclavicle rclavicle
    lowerneck upperneck
    upperneck head
    lclavicle lhumerus
    lhumerus lradius
    lradius lwrist
    lwrist lhand lthumb
    lhand lfingers
    rclavicle rhumerus
    rhumerus rradius
    rradius rwrist
    rwrist rhand rthumb
    rhand rfingers
  end

#!OML:ASF E:\Style3\Style3.ASF
:FULLY-SPECIFIED
:DEGREES
913
root -0.548168 17.9046 0.511048 -56.4419 88.0655 -72.0535
lowerback -7.0869 -1.89853 -1.58291
upperback -12.2268 -1.76309 1.55878
thorax -8.86841 -0.366587 2.50475
lowerneck -13.2265 -2.72146 -4.93071
upperneck 26.3109 -4.72693 9.34206
head 11.0173 -1.31399 3.65869
rclavicle -1.3331e-014 -1.71452e-015
rhumerus 54.3533 40.0287 -8.9808
rradius 70.8955
rwrist -30.9949
rhand 10.6972 1.78234
rfingers 7.12502
rthumb 35.7873 -24.5862
lclavicle -1.3331e-014 -1.71452e-015
lhumerus 35.2961 -60.3273 27.4531
lradius 68.1029
lwrist 23.3349
lhand -10.6971 39.4959
lfingers 7.12502
lthumb 15.3123 68.909
rfemur -16.3229 11.5863 17.4173
rtibia 12.4069
rfoot -10.8555 -17.8804
rtoes -17.5145
lfemur 0 0 0
ltibia 0
lfoot 0 0
ltoes 0
914
root -0.552571 17.9048 0.509231 -56.2841 88.048 -71.9409
lowerback -7.11953 -1.84558 -1.56795
upperback -12.242 -1.69141 1.51936
thorax -8.87236 -0.332991 2.45349
lowerneck -13.1847 -2.78825 -4.96383
upperneck 26.3179 -4.82626 9.38729
head 11.0226 -1.35681 3.66837
rclavicle 4.87644e-015 -1.18525e-014
rhumerus 54.1252 41.1973 -8.97445
rradius 70.8862
rwrist -30.9262
rhand 11.0433 2.09739
rfingers 7.12502
rthumb 36.1152 -24.1907
lclavicle 4.87644e-015 -1.18525e-014
lhumerus 36.4074 -59.2974 26.6008
lradius 68.0178
lwrist 23.2613
lhand -10.8502 39.8284
lfingers 7.12502
lthumb 15.1648 69.2527
rfemur -16.3469 11.4514 17.434
rtibia 12.3085
rfoot -10.9086 -17.7267
rtoes -16.9737
lfemur 0 0 0
ltibia 0
lfoot 0 0
ltoes 0
915
root -0.557534 17.9045 0.51047 -56.3866 88.0162 -72.0836
lowerback -7.1098 -1.80847 -1.55638
upperback -12.2607 -1.64149 1.49239
thorax -8.90293 -0.309084 2.41866
lowerneck -13.2358 -2.81496 -4.97746
upperneck 26.4306 -4.87929 9.44548
head 11.0823 -1.36962 3.68952
rclavicle 2.29037e-014 -8.44835e-015
rhumerus 53.8995 42.4642 -8.94147
rradius 70.8879
rwrist -30.825
rhand 11.1241 2.5273
rfingers 7.12502
rthumb 36.1917 -23.7419
lclavicle 2.29037e-014 -8.44835e-015
lhumerus 37.3159 -58.1415 25.8955
lradius 67.8936
lwrist 22.6904
lhand -10.9002 40.3518
lfingers 7.12502
lthumb 15.1166 69.7798
rfemur -16.3862 11.394 17.4688
rtibia 12.2468
rfoot -10.8933 -17.6549
rtoes -16.9017
lfemur 0 0 0
ltibia 0
lfoot 0 0
ltoes 0
916
root -0.559687 17.9051 0.514451 -58.486 87.9973 -74.2132
lowerback -7.07622 -1.81057 -1.58163
upperback -12.3062 -1.63881 1.5096
thorax -8.9733 -0.301025 2.45254
lowerneck -13.1932 -2.83249 -5.05509
upperneck 26.467 -4.90228 9.5065
head 11.0932 -1.37949 3.72442
rclavicle 8.82107e-016 -3.8763e-015
rhumerus 53.7556 43.8808 -8.95621
rradius 70.8205
rwrist -30.6982
rhand 11.2224 2.64646
rfingers 7.12502
rthumb 36.2848 -23.5996
lclavicle 8.82107e-016 -3.8763e-015
lhumerus 38.0426 -56.9179 25.4615
lradius 67.6346
lwrist 22.1895
lhand -10.8039 40.7465
lfingers 7.12502
lthumb 15.2094 70.1674
rfemur -16.4178 11.4841 17.5095
rtibia 12.2391
rfoot -10.8912 -17.771
rtoes -16.8242
lfemur 0 0 0
ltibia 0
lfoot 0 0
ltoes 0
917
root -0.562817 17.906 0.517081 -60.0746 88.0489 -75.8632
lowerback -7.07023 -1.82676 -1.70244
upperback -12.3497 -1.65363 1.52277
thorax -9.02246 -0.293511 2.5348
lowerneck -13.1743 -2.85154 -5.08892
upperneck 26.4771 -4.92405 9.51669
head 11.0963 -1.39131 3.73167
rclavicle 5.64673e-015 -6.85807e-015
rhumerus 53.6758 45.3664 -8.96177
rradius 70.8256
rwrist -30.6017
rhand 10.9031 2.15025
rfingers 7.12502
rthumb 35.9824 -24.1706
lclavicle 5.64673e-015 -6.85807e-015
lhumerus 38.7801 -55.5816 25.0362
lradius 67.3146
lwrist 21.7994
lhand -10.3197 40.3611
lfingers 7.12502
lthumb 15.6758 69.7461
rfemur -16.4998 11.4581 17.4824
rtibia 12.2508
rfoot -10.7653 -17.8556
rtoes -17.0896
lfemur 0 0 0
ltibia 0
lfoot 0 0
ltoes 0
918
root -0.566245 17.9068 0.519969 -58.9902 88.0517 -74.8201
lowerback -6.91188 -1.80794 -1.87458
upperback -12.4703 -1.61626 1.57588
thorax -9.24916 -0.246995 2.69321
lowerneck -13.0553 -2.85682 -5.2072
upperneck 26.486 -4.91657 9.56935
head 11.0792 -1.3947 3.77395
rclavicle -3.4104e-015 -7.8023e-015
rhumerus 53.5471 47.0352 -8.98799
rradius 70.7714
rwrist -30.4569
rhand 10.5938 1.6345
rfingers 7.12502
rthumb 35.6893 -24.7577
lclavicle -3.4104e-015 -7.8023e-015
lhumerus 39.2708 -54.3079 24.8294
lradius 67.099
lwrist 21.3806
lhand -9.62097 39.0675
lfingers 7.12502
lthumb 16.3486 68.3984
rfemur -16.5819 11.4178 17.4693
rtibia 12.2685
rfoot -10.7503 -17.7875
rtoes -16.9668
lfemur 0 0 0
ltibia 0
lfoot 0 0
ltoes 0
919
root -0.569797 17.9075 0.523463 -57.7539 88.0675 -73.6101
lowerback -6.44802 -1.80056 -2.17011
upperback -12.736 -1.58692 1.69514
thorax -9.81838 -0.175862 3.00178
lowerneck -12.905 -2.89461 -5.38208
upperneck 26.6213 -4.92769 9.54858
head 11.1046 -1.41749 3.80106
rclavicle -1.85831e-014 9.05713e-015
rhumerus 53.33 48.925 -8.9646
rradius 70.6318
rwrist -30.1021
rhand 10.6334 1.6748
rfingers 7.12502
rthumb 35.7268 -24.7084
lclavicle -1.85831e-014 9.05713e-015
lhumerus 39.5342 -53.2448 24.8161
lradius 67.0428
lwrist 21.2285
lhand -9.54152 38.461
lfingers 7.12502
lthumb 16.4251 67.7856
rfemur -16.6412 11.4873 17.4247
rtibia 12.2888
rfoot -10.806 -17.7963
rtoes -16.6709
lfemur 0 0 0
ltibia 0
lfoot 0 0
ltoes 0
920
root -0.572219 17.9072 0.526082 -56.7891 88.0399 -72.6084
lowerback -6.10776 -1.76532 -2.32953
upperback -12.8768 -1.53329 1.76367
thorax -10.181 -0.116595 3.17467
lowerneck -12.8352 -2.93543 -5.52589
upperneck 26.6967 -4.95706 9.55921
head 11.1257 -1.44261 3.8295
rclavicle -2.06891e-014 -2.23633e-015
rhumerus 53.0813 50.6791 -9.07568
rradius 70.3907
rwrist -29.6138
rhand 10.8203 2.01729
rfingers 7.12502
rthumb 35.9039 -24.3228
lclavicle -2.06891e-014 -2.23633e-015
lhumerus 40.1898 -52.1209 24.4175
lradius 66.9801
lwrist 21.2211
lhand -9.71862 38.5159
lfingers 7.12502
lthumb 16.2546 67.8546
rfemur -16.5988 11.4801 17.4594
rtibia 12.2782
rfoot -10.8181 -17.7458
rtoes -16.6603
lfemur 0 0 0
ltibia 0
lfoot 0 0
ltoes 0
921
root -0.574327 17.9069 0.528813 -56.3303 88.0162 -72.165
lowerback -6.45316 -1.72941 -2.32275
upperback -12.6797 -1.49386 1.71482
thorax -9.75401 -0.117818 3.10561
lowerneck -12.9168 -2.95682 -5.5593
upperneck 26.5312 -5.00695 9.6844
head 11.0889 -1.45803 3.86884
rclavicle 1.57941e-015 -1.64122e-014
rhumerus 52.9465 51.9813 -9.35023
rradius 70.055
rwrist -29.159
rhand 10.7612 2.35234
rfingers 7.12502
rthumb 35.848 -24.0014
lclavicle 1.57941e-015 -1.64122e-014
lhumerus 41.3041 -50.564 23.5087
lradius 66.942
lwrist 21.2178
lhand -9.81164 38.5476
lfingers 7.12502
lthumb 16.165 67.8935
rfemur -16.5836 11.5215 17.4769
rtibia 12.2032
rfoot -10.6967 -17.7617
rtoes -16.8809
lfemur 0 0 0
ltibia 0
lfoot 0 0
ltoes 0
922
root -0.575354 17.9077 0.531016 -57.1296 88.0089 -72.9643
lowerback -6.45768 -1.68977 -2.3333
upperback -12.6719 -1.44358 1.66947
thorax -9.74669 -0.0948016 3.06176
lowerneck -12.9385 -3.0171 -5.60932
upperneck 26.561 -5.10767 9.78252
head 11.1187 -1.49485 3.90202
rclavicle 1.39833e-014 1.08586e-014
rhumerus 52.5444 53.6002 -9.75227
rradius 69.8509
rwrist -28.7971
rhand 10.4363 2.2719
rfingers 7.12502
rthumb 35.5401 -24.1563
lclavicle 1.39833e-014 1.08586e-014
lhumerus 42.2204 -49.2665 22.8296
lradius 66.946
lwrist 21.3311
lhand -10.0038 38.7289
lfingers 7.12502
lthumb 15.98 68.0898
rfemur -16.5232 11.5443 17.5023
rtibia 12.09
rfoot -10.5723 -17.8061
rtoes -17.201
lfemur 0 0 0
ltibia 0
lfoot 0 0
ltoes 0
923
root -0.57524 17.907 0.531965 -58.3502 87.9458 -74.0629
lowerback -6.24728 -1.6349 -2.32374
upperback -12.6655 -1.37937 1.65287
thorax -9.86758 -0.0640636 3.04241
lowerneck -12.9652 -3.09177 -5.64671
upperneck 26.5712 -5.22863 9.86846
head 11.1435 -1.54163 3.92484
rclavicle -3.21783e-015 1.95306e-014
rhumerus 51.9109 55.1828 -10.4018
rradius 69.6569
rwrist -28.7271
rhand 10.6235 2.22235
rfingers 7.12502
rthumb 35.7175 -24.1631
lclavicle -3.21783e-015 1.95306e-014
lhumerus 43.2098 -48.0055 22.1152
lradius 66.9026
lwrist 21.4625
lhand -10.381 38.9427
lfingers 7.12502
lthumb 15.6168 68.3323
rfemur -16.3214 11.5498 17.6176
rtibia 11.9729
rfoot -10.5669 -17.8074
rtoes -17.0734
lfemur 0 0 0
ltibia 0
lfoot 0 0
ltoes 0
924
root -0.574987 17.906 0.533657 -58.9442 87.8897 -74.5558
lowerback -6.90451 -1.59822 -2.35271
upperback -12.2092 -1.3477 1.6405
thorax -8.9634 -0.083957 3.02403
lowerneck -13.0782 -3.12934 -5.65614
upperneck 26.1813 -5.30465 10.0168
head 11.0316 -1.57165 3.95589
rclavicle 1.32192e-014 -4.17448e-015
rhumerus 51.5445 56.1244 -10.9592
rradius 69.3128
rwrist -28.6106
rhand 10.9566 2.36919
rfingers 7.12502
rthumb 36.0331 -23.9392
lclavicle 1.32192e-014 -4.17448e-015
lhumerus 44.6101 -46.1378 21.1283
lradius 66.764
lwrist 21.4151
lhand -10.2899 39.0498
lfingers 7.12502
lthumb 15.7045 68.4325
rfemur -16.1644 11.5656 17.7119
rtibia 11.9009
rfoot -10.5732 -17.8113
rtoes -16.9681
lfemur 0 0 0
ltibia 0
lfoot 0 0
ltoes 0
925
root -0.577297 17.9054 0.53624 -58.8076 87.9026 -74.4649
lowerback -6.91555 -1.57216 -2.39324
upperback -12.1999 -1.31696 1.57396
thorax -8.9491 -0.0693887 2.97513
lowerneck -13.1015 -3.18365 -5.69134
upperneck 26.0953 -5.4189 10.2022
head 11.0223 -1.60652 4.01271
rclavicle 1.62879e-014 -2.83268e-015
rhumerus 50.8207 57.6348 -11.811
rradius 69.032
rwrist -28.3089
rhand 10.9784 2.40048
rfingers 7.12502
rthumb 36.0538 -23.9028
lclavicle 1.62879e-014 -2.83268e-015
lhumerus 45.5725 -44.8321 20.391
lradius 66.6817
lwrist 21.3901
lhand -10.1014 39.1505
lfingers 7.12502
lthumb 15.886 68.5188
rfemur -16.1852 11.634 17.6837
rtibia 11.8434
rfoot -10.5262 -17.8502
rtoes -17.0954
lfemur 0 0 0
ltibia 0
lfoot 0 0
ltoes 0
926
root -0.579334 17.9066 0.538909 -57.9151 87.9975 -73.758
lowerback -7.12542 -1.58027 -2.53809
upperback -12.1947 -1.32023 1.53305
thorax -8.82056 -0.0614316 3.00794
lowerneck -13.1134 -3.2412 -5.7811
upperneck 25.9601 -5.51039 10.3385
head 10.9901 -1.64536 4.06171
rclavicle 1.55301e-015 -1.65985e-014
rhumerus 50.3431 59.0743 -12.3889
rradius 68.7667
rwrist -27.8661
rhand 10.8244 2.34947
rfingers 7.12502
rthumb 35.9078 -23.9896
lclavicle 1.55301e-015 -1.65985e-014
lhumerus 46.3356 -43.506 19.8394
lradius 66.6325
lwrist 21.2763
lhand -10.0686 39.2126
lfingers 7.12502
lthumb 15.9175 68.5784
rfemur -16.387 11.6281 17.5418
rtibia 11.8071
rfoot -10.4991 -17.8603
rtoes -17.1421
lfemur 0 0 0
ltibia 0
lfoot 0 0
ltoes 0
927
root -0.579995 17.906 0.542274 -58.0529 87.9538 -73.8717
lowerback -7.04609 -1.54149 -2.62215
upperback -12.194 -1.26823 1.56021
thorax -8.86794 -0.0259091 3.08543
lowerneck -13.1038 -3.33245 -5.87773
upperneck 25.9182 -5.62275 10.3605
head 10.9874 -1.70542 4.06984
rclavicle -6.26172e-015 -5.56597e-015
rhumerus 50.0203 60.5888 -12.7094
rradius 68.5055
rwrist -27.5277
rhand 10.5664 2.30707
rfingers 7.12502
rthumb 35.6634 -24.0914
lclavicle -6.26172e-015 -5.56597e-015
lhumerus 47.0188 -42.3608 19.4648
lradius 66.5746
lwrist 21.0638
lhand -10.166 39.1572
lfingers 7.12502
lthumb 15.8238 68.5305
rfemur -16.3475 11.6693 17.6024
rtibia 11.7738
rfoot -10.4612 -17.8762
rtoes -16.9812
lfemur 0 0 0
ltibia 0
lfoot 0 0
ltoes 0
928
root -0.575535 17.9035 0.544652 -56.3625 87.8489 -71.9229
lowerback -6.7547 -1.46707 -2.65997
upperback -12.1372 -1.1839 1.59237
thorax -8.97719 0.0180401 3.14583
lowerneck -13.1534 -3.40655 -5.97164
upperneck 25.938 -5.70412 10.3466
head 11.0155 -1.7524 4.07034
rclavicle 7.0817e-016 -6.16232e-015
rhumerus 49.9987 62.0686 -12.75
rradius 68.2255
rwrist -27.3994
rhand 10.5796 2.23053
rfingers 7.12502
rthumb 35.6759 -24.165
lclavicle 7.0817e-016 -6.16232e-015
lhumerus 47.5335 -41.2482 19.2384
lradius 66.5692
lwrist 20.9061
lhand -10.0836 39.0103
lfingers 7.12502
lthumb 15.9032 68.3773
rfemur -16.0606 11.7446 17.7288
rtibia 11.7842
rfoot -10.468 -17.8474
rtoes -16.8656
lfemur 0 0 0
ltibia 0
lfoot 0 0
ltoes 0
